<svg xmlns="http://www.w3.org/2000/svg" width="104.854" height="32.561" viewBox="0 0 104.854 32.561">
    <defs>
        <style>
            .cls-1{fill:#fff}
        </style>
    </defs>
    <g id="App_Name" data-name="App Name">
        <path id="Path_383" d="M137.812 142.655v-.122a1.425 1.425 0 0 0-1.894 0 1.405 1.405 0 0 0-.428 1.833 4.2 4.2 0 0 1 .163 2.4c-.957 8.41-11.587 25.007-15.029 25.007-.957-.9.774-8.919 3.706-17.248a2.036 2.036 0 0 0-1.344-2.668 4.378 4.378 0 0 0-5.193 2.036l-.489 1c-5.6 11.322-9.673 17.045-12.055 17.045a6.578 6.578 0 0 1 0-3.727 114.179 114.179 0 0 1 3.706-14.764 2.036 2.036 0 0 0-1.507-2.586 4.236 4.236 0 0 0-5.172 2.036v.2a71.049 71.049 0 0 0-2.769 10.854c-.591 4.439-.143 7.453 1.364 9.184a4.867 4.867 0 0 0 3.828 1.588c3.014 0 6.394-2.932 10.182-8.756a10.182 10.182 0 0 0 1.283 6.964 4.745 4.745 0 0 0 3.89 1.792c6.985 0 17.432-19.3 18.633-27.573a6.109 6.109 0 0 0-.57-4.46" class="cls-1" data-name="Path 383" transform="translate(-99.257 -142.173)"/>
        <path id="Path_384" d="M132.985 148.522a3.279 3.279 0 0 0 2.036.611h.692a3.727 3.727 0 0 0 2.79-3.889 2.81 2.81 0 0 0-1.14-2.036 3.136 3.136 0 0 0-2.668-.468 3.767 3.767 0 0 0-2.851 3.93 2.81 2.81 0 0 0 1.181 2.036" class="cls-1" data-name="Path 384" transform="translate(-65.492 -141.707)"/>
        <path id="Path_385" d="M185.376 158.491a1.487 1.487 0 0 0-1.812.591c-1.466 4.073-4.867 10.711-8.471 10.773a3.054 3.054 0 0 1 0-1.2 49.231 49.231 0 0 1 2.036-6.394 65.59 65.59 0 0 0 2.912-9.978 8.146 8.146 0 0 0-.937-6.618 4.989 4.989 0 0 0-3.93-1.629c-3.767 0-7.168 3.543-9.775 7.474v-.2c.244-1.14-.489-2.036-1.853-2.444-1.69-.428-4.378.143-4.928 2.036-.9 2.892-1.711 5.783-2.423 8.594-1.425 3.808-4.684 10.182-7.983 10.386-.367-1.018 0-5.132 4.073-18.531.183-.774-.122-1.812-1.588-2.24s-4.5 0-5.091 1.772a80.832 80.832 0 0 0-2.22 8.288c-1.466 3.971-4.806 10.548-8.309 10.711-.305-.794.163-3.808 3.747-13.359.367-.957.631-1.67.753-2.036a1.568 1.568 0 0 0-1.079-2.036c-1.425-.59-4.623-.428-5.478 1.385-1.751 4.317-7.555 14.4-10.426 14.784a7.962 7.962 0 0 1 .1-2.77v-.305c.733-4.663 4.521-16.882 8.655-16.841a6.944 6.944 0 0 1 4.562 2.77h.224a1.507 1.507 0 0 0 1.792-.265 1.425 1.425 0 0 0 .367-1.711l-.122-.183a9.021 9.021 0 0 0-6.578-3.3c-8.146-.163-13.766 9.367-14.764 16.291-.183 1.2-.591 5.315 1.466 7.7a4.826 4.826 0 0 0 3.828 1.649c2.179 0 4.643-1.873 7.331-5.58a6.9 6.9 0 0 0 1.039 4.928 4.887 4.887 0 0 0 4.073 1.751c3.442 0 6.109-2.77 7.962-5.478a6.842 6.842 0 0 0 1.527 4.073 4.317 4.317 0 0 0 3.279 1.364 8.777 8.777 0 0 0 6.7-3.828 2.159 2.159 0 0 0 1.649 1.262c1.69.407 4.378 0 4.928-1.649 1.711-6.455 8.451-21.545 13.807-21.545s.163.265 0 1.263a44.457 44.457 0 0 1-2.036 6.842 61.256 61.256 0 0 0-2.831 9.856 7.555 7.555 0 0 0 1.018 6.272 4.908 4.908 0 0 0 3.91 1.527h.1c6.781 0 10.732-10.63 11.465-12.768v-.143a1.222 1.222 0 0 0-.916-1.364" class="cls-1" data-name="Path 385" transform="translate(-81.208 -140.252)"/>
    </g>
</svg>
