<svg xmlns="http://www.w3.org/2000/svg" width="21.038" height="19.302" viewBox="0 0 21.038 19.302">
    <g id="favorite_border" transform="translate(-334 -65)">
        <path id="ic_favorite_border_24px" fill="#fff" d="M17.252 3a6.3 6.3 0 0 0-4.733 2.2A6.3 6.3 0 0 0 7.785 3 5.729 5.729 0 0 0 2 8.785C2 12.762 5.576 16 10.994 20.924l1.525 1.376 1.525-1.388c5.417-4.912 8.994-8.15 8.994-12.127A5.729 5.729 0 0 0 17.252 3zm-4.628 16.357l-.105.105-.105-.105C7.407 14.823 4.1 11.825 4.1 8.785A3.6 3.6 0 0 1 7.785 5.1a4.112 4.112 0 0 1 3.755 2.482h1.967A4.086 4.086 0 0 1 17.252 5.1a3.6 3.6 0 0 1 3.682 3.682c0 3.043-3.303 6.041-8.31 10.575z" transform="translate(332 62)"/>
    </g>
</svg>
