<svg xmlns="http://www.w3.org/2000/svg" id="favorite_border" width="19.385" height="17.786" viewBox="0 0 19.385 17.786">
    <path id="ic_favorite_border_24px" fill="rgba(0,0,0,0.4)" d="M16.054 3a5.8 5.8 0 0 0-4.362 2.026A5.8 5.8 0 0 0 7.331 3 5.279 5.279 0 0 0 2 8.331c0 3.664 3.3 6.649 8.287 11.185l1.405 1.27 1.408-1.28c4.992-4.526 8.287-7.512 8.287-11.176A5.279 5.279 0 0 0 16.054 3zM11.79 18.072l-.1.1-.1-.1c-4.614-4.178-7.657-6.94-7.657-9.741a3.313 3.313 0 0 1 3.398-3.392 3.789 3.789 0 0 1 3.46 2.287H12.6a3.765 3.765 0 0 1 3.451-2.287 3.313 3.313 0 0 1 3.392 3.392c.004 2.801-3.043 5.563-7.653 9.741z" transform="translate(-2 -3)"/>
</svg>
