<svg xmlns="http://www.w3.org/2000/svg" width="12.952" height="17" viewBox="0 0 12.952 17">
    <g>
        <path fill="#00838f" d="M15.333 6.667h-.81V5.048a4.048 4.048 0 1 0-8.1 0v1.619h-.81A1.624 1.624 0 0 0 4 8.286v8.1A1.624 1.624 0 0 0 5.619 18h9.714a1.624 1.624 0 0 0 1.619-1.619v-8.1a1.624 1.624 0 0 0-1.619-1.614zm-4.857 7.286a1.619 1.619 0 1 1 1.624-1.62 1.624 1.624 0 0 1-1.624 1.619zm2.51-7.286H7.967V5.048a2.51 2.51 0 0 1 5.019 0z" transform="translate(-63 -332) translate(59 331)"/>
    </g>
</svg>
