<svg xmlns="http://www.w3.org/2000/svg" width="34.075" height="14.108" viewBox="0 0 34.075 14.108">
  <path id="Path_385" data-name="Path 385" d="M150.41,151.13a.73.73,0,0,0-.89.29h0c-.72,2-2.39,5.26-4.16,5.29a1.5,1.5,0,0,1,0-.59,24.172,24.172,0,0,1,1-3.14,32.208,32.208,0,0,0,1.43-4.9,4,4,0,0,0-.46-3.25,2.45,2.45,0,0,0-1.93-.8c-1.85,0-3.52,1.74-4.8,3.67v-.1c.12-.56-.24-1-.91-1.2-.83-.21-2.15.07-2.42,1-.44,1.42-.84,2.84-1.19,4.22-.7,1.87-2.3,5-3.92,5.1-.18-.5,0-2.52,2-9.1.09-.38-.06-.89-.78-1.1s-2.21,0-2.5.87a39.7,39.7,0,0,0-1.09,4.07c-.72,1.95-2.36,5.18-4.08,5.26-.15-.39.08-1.87,1.84-6.56.18-.47.31-.82.37-1a.77.77,0,0,0-.53-1c-.7-.29-2.27-.21-2.69.68-.86,2.12-3.71,7.07-5.12,7.26a3.91,3.91,0,0,1,.05-1.36v-.15c.36-2.29,2.22-8.29,4.25-8.27a3.41,3.41,0,0,1,2.24,1.36h.11a.74.74,0,0,0,.88-.13.7.7,0,0,0,.18-.84l-.06-.09A4.43,4.43,0,0,0,124,145c-4-.08-6.76,4.6-7.25,8-.09.59-.29,2.61.72,3.78a2.37,2.37,0,0,0,1.88.81c1.07,0,2.28-.92,3.6-2.74a3.39,3.39,0,0,0,.51,2.42,2.4,2.4,0,0,0,2,.86h0c1.69,0,3-1.36,3.91-2.69a3.36,3.36,0,0,0,.75,2,2.12,2.12,0,0,0,1.61.67h0a4.31,4.31,0,0,0,3.29-1.88,1.06,1.06,0,0,0,.81.62c.83.2,2.15,0,2.42-.81.84-3.17,4.15-10.58,6.78-10.58h0s.08.13,0,.62a21.83,21.83,0,0,1-1,3.36,30.081,30.081,0,0,0-1.39,4.84,3.71,3.71,0,0,0,.5,3.08,2.41,2.41,0,0,0,1.92.75h.05c3.33,0,5.27-5.22,5.63-6.27v-.07a.6.6,0,0,0-.45-.67" transform="translate(-116.672 -144.027)" fill="#070405"/>
</svg>
