<svg xmlns="http://www.w3.org/2000/svg" width="19.456" height="15.989" viewBox="0 0 19.456 15.989">
  <path id="Path_383" data-name="Path 383" d="M118.19,142.41v-.06a.7.7,0,0,0-.93,0,.69.69,0,0,0-.21.9,2.06,2.06,0,0,1,.08,1.18c-.47,4.13-5.69,12.28-7.38,12.28h0c-.47-.44.38-4.38,1.82-8.47a1,1,0,0,0-.66-1.31,2.15,2.15,0,0,0-2.55,1l-.24.49c-2.75,5.56-4.75,8.37-5.92,8.37h0a3.23,3.23,0,0,1,0-1.83,56.069,56.069,0,0,1,1.82-7.25,1,1,0,0,0-.74-1.27,2.08,2.08,0,0,0-2.54,1v.1a34.891,34.891,0,0,0-1.36,5.33c-.29,2.18-.07,3.66.67,4.51a2.39,2.39,0,0,0,1.88.78c1.48,0,3.14-1.44,5-4.3a5,5,0,0,0,.63,3.42,2.33,2.33,0,0,0,1.91.88h0c3.43,0,8.56-9.48,9.15-13.54a3,3,0,0,0-.28-2.19" transform="translate(-99.257 -142.173)" fill="#070405"/>
</svg>
