<svg xmlns="http://www.w3.org/2000/svg" width="22.843" height="23.383" viewBox="0 0 22.843 23.383">
    <g id="settings" transform="translate(.538 .5)">
        <path id="ic_settings_24px" fill="none" stroke="#00838f" d="M21.475 14.289a8.722 8.722 0 0 0 .078-1.1 8.723 8.723 0 0 0-.078-1.1l2.361-1.847a.565.565 0 0 0 .134-.716L21.732 5.66a.563.563 0 0 0-.683-.246l-2.786 1.119a8.177 8.177 0 0 0-1.891-1.1l-.426-2.963A.546.546 0 0 0 15.4 2h-4.479a.546.546 0 0 0-.548.47l-.426 2.966a8.6 8.6 0 0 0-1.891 1.1L5.269 5.413a.546.546 0 0 0-.683.246L2.348 9.532a.552.552 0 0 0 .134.716l2.361 1.847a8.876 8.876 0 0 0-.078 1.1 8.876 8.876 0 0 0 .078 1.1l-2.36 1.84a.565.565 0 0 0-.134.716l2.238 3.872a.563.563 0 0 0 .683.246l2.787-1.119a8.177 8.177 0 0 0 1.891 1.1l.425 2.966a.546.546 0 0 0 .548.47H15.4a.546.546 0 0 0 .548-.47l.425-2.966a8.6 8.6 0 0 0 1.891-1.1l2.786 1.12a.546.546 0 0 0 .683-.246l2.238-3.872a.565.565 0 0 0-.134-.716zm-8.315 2.82a3.917 3.917 0 1 1 3.917-3.917 3.921 3.921 0 0 1-3.918 3.917z" transform="translate(-2.271 -2)"/>
    </g>
</svg>
