<svg xmlns="http://www.w3.org/2000/svg" width="23.388" height="25.395" viewBox="0 0 23.388 25.395">
    <defs>
        <style>
            .cls-1{fill:none;stroke:#00838f}
        </style>
    </defs>
    <g id="sing_out" transform="rotate(180 11.444 12.447)">
        <path id="Path_378" d="M9.153 4.405a1.026 1.026 0 0 1-.2.328L6.187 7.748a.87.87 0 0 1-1.3 0 1.069 1.069 0 0 1 0-1.421l1.193-1.3H.922A.966.966 0 0 1 0 4.021a.966.966 0 0 1 .922-1.005h5.153l-1.193-1.3a1.069 1.069 0 0 1 0-1.422.869.869 0 0 1 1.3 0L8.953 3.31a1 1 0 0 1 .2.328 1.09 1.09 0 0 1 0 .767z" class="cls-1" data-name="Path 378" transform="translate(13.16 9.198)"/>
        <path id="Path_379" d="M15.914 10.164a.979.979 0 0 1-.936-1.017V4.066h-3.745v16.263a1.011 1.011 0 0 1-.667.974l-3.251 1.059h7.663v-5.083a.939.939 0 1 1 1.872 0v6.1a.978.978 0 0 1-.936 1.016H.936a.778.778 0 0 1-.1-.019.878.878 0 0 1-.126-.024.905.905 0 0 1-.271-.126c-.017-.015-.039-.016-.062-.033s-.01-.017-.018-.023a.992.992 0 0 1-.249-.321.881.881 0 0 1-.026-.085 1.021 1.021 0 0 1-.074-.238.685.685 0 0 1 0-.088c0-.02-.013-.039-.013-.059V3.049a1 1 0 0 1 .753-1L10.114.02A.8.8 0 0 1 10.3 0a.891.891 0 0 1 .593.231 1.053 1.053 0 0 1 .343.786v1.016h4.681a.978.978 0 0 1 .936 1.016v6.1a.979.979 0 0 1-.939 1.015z" class="cls-1" data-name="Path 379"/>
    </g>
</svg>
